<?xml version="1.0" encoding="UTF-8"?>
<svg id="Layer_2" data-name="Layer 2" xmlns="http://www.w3.org/2000/svg" viewBox="0 0 583.98 373.85">
  <defs>
    <style>
      .cls-1 {
        fill: #2E7D32;
        stroke-width: 0px;
      }
    </style>
  </defs>
  <g id="Layer_1-2" data-name="Layer 1">
    <g>
      <path class="cls-1" d="M525.25,321.08c.5-8.75,1.45-17.5,1.39-26.25-.08-10.54-3.57-20.38-9.14-29.21-10.27-16.3-22.21-31.7-24.95-51.85-6.86,0-13.01.01-19.16,0-59.16-.14-118.33-.35-177.49-.3-5.21,0-6.56-1.57-6.33-6.52.38-8.13.1-16.3.1-25.22h95.02c-.31-19.97,3.06-39.28-2.17-58.29-4.87-17.7-15.42-27.9-34.82-26.93-10.11.51-20.27.09-30.75.09v-31.87c17.67.87,35.41-2.35,52.26,3.38,27.45,9.35,42.48,29.66,45.98,57.97,1.56,12.64.59,25.6.72,38.42.06,5.65.01,11.3.01,17.11h135.54c.63-.88.98-1.13.98-1.39.04-16.63,1.2-33.37-.21-49.88-1.85-21.64-15.57-33.3-37.37-33.63-21.99-.34-44-.13-65.99-.16-1.99,0-3.98,0-6.44,0v-32.13c.68-.18,1.28-.5,1.89-.49,25.33.14,50.66.07,75.98.52,36.74.65,60.94,31.81,62.85,60.52,1.6,24.04.41,48.26.43,72.41,0,3.67-.38,7.36-.08,10.99.38,4.6-1.27,6.06-5.94,5.99-21.83-.32-43.66-.3-65.49-.39-2.31-.01-4.62,0-6.9,0-.91,21.72,12.52,43.19,31.98,51.88,6.68,2.98,13.38,6.02,19.64,9.75,3.67,2.18,6.49,5.78,9.12,9.57-9.61-8.58-22.19-10.02-33.25-14.9-4.41-1.95-8.22-5.23-13.18-8.48,12.58,19.26,14.67,38.89,5.78,59.29Z"/>
      <path class="cls-1" d="M178.54,373.85c-6.34-17.81-1.47-42.71,11.69-63.09-13.49,4.14-26.7,12.77-39.94,25.27.72-1.45,1.33-2.97,2.18-4.33,4.85-7.74,12.31-12.46,19.84-17.15,35.18-21.9,54.12-54.08,59.7-94.66.2-1.48.23-2.99.32-4.49.04-.66,0-1.32,0-2.68-1.74,0-3.34,0-4.93,0-15.33,0-30.66.19-45.98,0-35.13-.45-57.15-20.3-60.62-55.3-1.58-15.94-.88-31.89,2.55-47.72,4.95-22.85,26.43-44.6,52.07-45.16,22.14-.49,44.3-.55,66.43.01,5.5.14,11.3,2.69,16.27,5.41,5.68,3.1,8.29,8.59,8.16,15.48-.6,33.81-1.09,67.63-1.38,101.44-.25,29.65-10.34,55.66-28.79,78.52-8.42,10.44-14.42,21.64-13.71,35.38.26,5.08,1.61,10.12,2.59,15.15.34,1.73,1.06,3.38,1.12,5.23-5.07-4.69-6.66-10.96-7.23-17.31-.58-6.38-.13-12.85-.13-20.79-10.97,14.13-21.96,27.21-31.71,41.15-8.39,11.99-7.56,26.59-8.5,40.5-.2,3.03-.03,6.09-.03,9.13ZM233.87,96.27c-17.96,0-35.91-.13-53.86.04-13.43.13-21.26,6.4-24.73,19.48-3.63,13.68-4.18,27.66-2.64,41.63,1.41,12.82,12.14,23.64,24.32,23.98,18.77.53,37.57.14,56.91.14v-85.28Z"/>
      <path class="cls-1" d="M0,293.38c3.86-2.15,7.73-4.29,11.59-6.45,23.17-12.99,40.41-31.14,47.06-57.39,2.54-10.04,3.43-20.72,3.55-31.12.48-41.96.37-83.92.48-125.89,0-2.63,0-5.27,0-8.48,9.69,0,18.96-.02,28.23.01,3.52.01,3.26,2.64,3.25,4.98-.03,11.16-.07,22.31-.13,33.47-.17,30.14-.94,60.29-.42,90.42.88,50.57-31.49,82.04-69.23,95.54-7.73,2.77-15.86,4.45-23.8,6.64-.19-.58-.39-1.16-.58-1.74Z"/>
      <rect class="cls-1" x="344.51" y="6.13" width="29.6" height="29.6" transform="translate(90.44 260.2) rotate(-45)"/>
    </g>
  </g>
</svg>